<?xml version="1.0" encoding="utf-8"?>
<!-- Generator: Adobe Illustrator 25.0.0, SVG Export Plug-In . SVG Version: 6.00 Build 0)  -->
<svg version="1.1" id="Layer_1" xmlns="http://www.w3.org/2000/svg" xmlns:xlink="http://www.w3.org/1999/xlink" x="0px" y="0px"
	 viewBox="0 0 1652.1 312.8" style="enable-background:new 0 0 1652.1 312.8;" xml:space="preserve">
<style type="text/css">
	.st0{fill:#80BA27;}
	.st1{fill:#006A5C;}
	.st2{fill:#019E93;}
</style>
<g id="_x23_80ba27ff">
	<path class="st0" d="M209.7,56c1.6-3.5,6.4-3.7,9-1.3c5.4,4.3,8.5,10.8,10.8,17.2c4.1,12.5,4.9,26.9-1.6,38.8
		c-3.2,6.7-7.9,12.5-13.5,17.3c-29.7,25.9-64.5,45.3-100.2,61.7c-1.8,1-3.9,1.3-5.9,1.1c1.4-3,4.3-5,6.6-7.3
		c19-19.2,36-40.4,51.8-62.3C182,100.1,197.2,78.9,209.7,56z"/>
</g>
<g id="_x23_006a5cff">
	<path class="st1" d="M404.2,74.8c17.5-8.1,37.4-10.1,56.4-8c13.1,1.3,26,5.1,37.4,11.8c7.5,4.3,14.2,9.9,20.4,15.8
		c-8.5,10.1-17.2,20-25.9,30c-11.9-10.8-26.6-19.9-43.1-20.6c-16-1.3-32.5,5.4-42.8,17.7c-20.9,24.2-18.3,65.3,6.7,85.7
		c13.1,11.1,31.6,13.6,47.9,9.5c12.6-3.1,23.2-11.1,32.6-19.7c8.6,8.7,17.2,17.4,25.9,26c-8,9.1-17.7,17-28.5,22.8
		c-14,7.4-30,10.4-45.7,10.2c-20.1,0.5-40.5-5.5-56.8-17.2c-19.4-13.7-32.8-35.4-36.9-58.7c-3.5-19.8-1.6-40.7,6.7-59.1
		C367.4,100.7,384,83.9,404.2,74.8z"/>
	<path class="st1" d="M1412.5,67.7c6.3,0,12.5,0,18.8,0c0,61.4,0,122.8,0,184.3c-6.3,0-12.5,0-18.8,0c0-6.8,0.1-13.5-0.1-20.3
		c-4.9,5.2-9.8,10.5-15.9,14.1c-14.9,9.6-34.1,11.5-50.8,5.9c-15.2-4.9-28.3-15.8-35.9-29.9c-7.3-12.9-9.6-28.2-8.2-42.9
		c1.5-19.6,12-38.5,28.3-49.6c15.4-10.8,35.8-14.1,53.8-8.4c11.4,3.5,21.3,10.8,28.9,19.9C1412.5,116.4,1412.5,92.1,1412.5,67.7
		 M1356,137.7c-8.9,1.8-17.3,6.6-23.3,13.5c-11.1,12.7-13.5,30.8-10.7,46.9c2.2,11.8,8.5,23.1,18.5,30c9.4,6.9,21.7,9.6,33.2,7.5
		c12.3-2.2,23.6-9.6,30.6-19.9c12.9-18.4,11.7-45.5-3-62.5C1390.4,140.4,1372.5,133.9,1356,137.7z"/>
	<path class="st1" d="M966.3,81c16.9-8.7,36.6-10.5,55.2-7.9c13.4,1.8,26.1,7,37.2,14.7c6.4,4.4,12.3,9.5,17.9,14.8
		c-4.6,4.9-9.2,9.7-14,14.5c-5.3-5.2-10.8-10.1-16.9-14.3c-15.1-10.3-34.2-14.2-52.1-11.2c-16.4,2.7-31.6,12.1-41.5,25.4
		c-8.7,11.5-13.4,25.8-14.3,40.1c-1.5,18.4,3.2,37.5,14.3,52.4c10.5,14.3,26.8,24.1,44.4,26.4c12.9,1.5,26.4,0.1,38.3-5.4
		c11-5.4,20.7-13.2,29-22.1c4.7,4.3,9.1,8.9,13.8,13.3c-10.1,10.3-21.5,19.8-34.8,25.6c-15.2,6.9-32.4,8.9-48.9,7
		c-20.2-2.2-39.5-12-53.2-27c-23.7-25.6-29.9-64.8-17.8-97.2C930.6,109.1,946.1,90.9,966.3,81z"/>
	<path class="st1" d="M1458.2,72.5c7.3-0.1,14.5-0.1,21.8,0c0,7.8,0,15.6,0,23.3c-7.3,0-14.6,0.1-21.9,0
		C1458.2,88,1458.2,80.2,1458.2,72.5z"/>
	<path class="st1" d="M1517.2,81.4c6.4,0,12.7,0,19.1,0c0,13.2,0,26.4,0,39.6c14.5,0,29,0,43.5,0c0,6,0,12,0,18c-14.5,0-29,0-43.5,0
		c0,26,0,52,0,78c0.2,5.2,1.4,11.2,5.9,14.4c6.1,4.3,14,5,21.2,3.8c5.6-0.8,10.7-3.4,15.8-5.5c0,6.3,0,12.6,0,18.9
		c-7.4,3.5-15.5,5.9-23.7,5.4c-11.7,0.4-24.4-3.7-31.3-13.6c-5.2-7-7-15.8-7-24.4c0-25.7,0-51.3,0-77c-5.9-0.1-11.8,0-17.7,0
		c0-6,0-12,0-18c5.9,0,11.8,0,17.7,0C1517.2,107.8,1517.2,94.6,1517.2,81.4z"/>
	<path class="st1" d="M730,115.3c7.5-4.7,16.5-6,25.1-5.8c0.3,14,0.1,28.1,0.1,42.1c-11.8-0.3-24.4,2.7-32.7,11.6
		c-9.3,9.8-11.7,23.9-12.1,36.9c-0.1,17.7,0,35.4,0,53c-13.3,0-26.7,0-40,0c0-46.9,0-93.9,0-140.8c13.3,0,26.6,0,39.9,0
		c0.1,9-0.1,18.1,0.1,27.1C715.1,129.9,720.9,120.7,730,115.3z"/>
	<path class="st1" d="M787,122.5c11.9-8.8,26.8-13.2,41.5-12.8c15.8-0.1,32,4.9,43.8,15.6c12.9,11.4,20.1,28.1,22.6,44.9
		c1.2,8.8,1.8,17.7,0.5,26.5c-32.5-0.1-65,0-97.5-0.1c1.8,8.7,6.6,17.1,14.2,21.9c8.4,5.4,18.9,6,28.6,4.6
		c9.8-1.5,18.2-7.1,25.3-13.8c7.8,6.7,15.4,13.6,23.1,20.4c-10.1,12.8-24.7,21.8-40.7,24.8c-18.4,3.4-38.2,1.5-54.8-7.6
		c-14-7.6-25.1-20.4-30.7-35.3c-5.5-14.5-6.3-30.5-3.2-45.7C763.2,148.8,772.8,132.8,787,122.5 M808.4,149.1
		c-6.3,5.8-9.5,14.1-11.2,22.4c19.9,0,39.8,0,59.7,0c-1.3-10.8-6.8-22.1-17-26.9C829.8,139.8,816.7,141.4,808.4,149.1z"/>
	<path class="st1" d="M537.3,122c20.8-9.9,44.4-12.9,67.2-10.7c13.3,1.5,27,6.2,36.2,16.4c6.7,7.2,10.7,16.6,12.5,26.3
		c2,9.9,1.5,20,1.5,30c0,23,0,46,0,69c-13,0-25.9,0.1-38.9-0.1c0.1-4.7,0.1-9.4,0-14.2c-3.1,2.3-5.7,5.3-9,7.4
		c-13.2,9.1-30.3,11.2-45.9,8.3c-13-2.5-25.6-10.2-31.4-22.4c-4.5-8.6-4.7-18.6-3.7-28.1c1.4-10.8,7.5-20.9,16.6-26.9
		c11.4-7.6,25.5-9.9,39-10c11.8-0.2,23.6,1.7,34.7,5.6c0.5-8-1.8-16.9-8.7-21.9c-8.3-5.9-19.2-6.3-29-5.4
		c-10.7,0.6-21.1,3.6-31.1,7.4C544,142.5,540.7,132.3,537.3,122 M583,191.8c-5.5,0.9-11.1,2.9-14.8,7.2c-5.9,6.7-5.6,18.8,1.9,24.2
		c6.6,4.9,15.5,5.1,23.3,3.8c8.9-1.5,17.9-6.5,21.5-15.1c2.3-4.9,1.6-10.5,1.6-15.7C606.1,191.8,594.4,190.1,583,191.8z"/>
	<path class="st1" d="M1196.9,127.5c21-14,51.5-12.4,70.3,4.7c13.8,12.2,20.9,30.6,21.9,48.8c0.3,4.6,0.4,9.3-0.7,13.9
		c-33.9,0-67.8,0-101.8,0c1.6,13.9,9.4,27.2,21.2,34.9c9.3,6,20.8,7.8,31.7,6.2c13.6-1.6,25.3-10.3,34.1-20.3c4.8,3.8,9.2,8,13.8,12
		c-6.5,7.1-13.7,13.6-22,18.5c-10,6.4-22.2,8.8-33.9,8.7c-14.7,0.4-29.4-4.8-40.7-14.1c-13.5-10.9-21.9-27.5-23.7-44.6
		c-1.1-11.2-0.4-22.7,3.2-33.4C1174.9,148.5,1184.3,135.7,1196.9,127.5 M1210.2,140.8c-13.3,7.2-21.4,21.7-23.5,36.4
		c27.5,0,55,0,82.5,0c-1.1-8.3-3.7-16.6-8.3-23.7c-5.2-8-13.3-14.2-22.7-16.3C1228.9,135.2,1218.7,136,1210.2,140.8z"/>
	<path class="st1" d="M1153.1,119.8c4.7-0.8,9.4-0.6,14.2-0.6c0,6.7,0.1,13.4,0,20.1c-12.2-0.6-24.8,2.2-34.4,10
		c-13.8,10.8-20.2,28.7-20.5,45.8c-0.1,19,0,37.9,0,56.9c-6.3,0-12.5,0-18.8,0c0-43.7,0-87.3,0-131c6.3,0,12.5,0,18.8,0
		c0,8.1-0.1,16.2,0.1,24.3c2.2-1.6,3.5-4.1,5.4-6C1126.8,128.9,1139.5,121.7,1153.1,119.8z"/>
	<path class="st1" d="M1459.7,121c6.3,0,12.5,0,18.8,0c0,43.7,0,87.3,0,131c-6.3,0-12.5,0-18.8,0
		C1459.7,208.3,1459.7,164.7,1459.7,121z"/>
	<path class="st1" d="M235.9,130.5c0.1,0,0.1-0.1,0.2-0.1C236,130.4,235.9,130.5,235.9,130.5z"/>
	<path class="st1" d="M276.2,151.8c0.2-0.5,0.6-1.4,0.8-1.9c0,0.4,0.1,1.3,0.1,1.7L276.2,151.8z"/>
	<path class="st1" d="M295.7,182.3c4.1-1.6,9.9-2.1,12.5,2.2c2.9,4.9,1.9,10.9,0.6,16.1c-3.4,13-11.2,24.7-21.5,33.2
		c-9.1,7.2-20.5,10.6-31.7,12.9c-15.2,3-30.7,3.6-46.1,4.1c-26.3,0.4-52.6-1.3-78.5-5.6c-23.2-4-46.5-9.8-67.8-20.3
		c-1.5-0.6-2.7-1.8-3.7-3c2.6-2.1,6-0.9,8.9-0.9c30.7,1.1,61.5-0.1,92-4.1c21-2.7,41.6-7.4,62.1-12.5
		C247.3,198.1,271.8,191.2,295.7,182.3z"/>
	<path class="st1" d="M224.4,189.6c0.5-0.2,1.4-0.6,1.9-0.8l-0.1,0.9l-1,0.4L224.4,189.6z"/>
	<path class="st1" d="M218.4,191.5c0.5-0.2,1.4-0.6,1.9-0.8l-0.1,0.9C219.7,191.6,218.9,191.5,218.4,191.5z"/>
	<path class="st1" d="M211.5,193.6c0.5-0.2,1.4-0.6,1.8-0.8l-0.1,0.9C212.7,193.6,211.9,193.6,211.5,193.6z"/>
	<path class="st1" d="M204.4,195.5c0.5-0.2,1.4-0.6,1.9-0.7l-0.2,0.9l-1,0.4L204.4,195.5z"/>
	<path class="st1" d="M200.4,196.5c0.5-0.2,1.4-0.5,1.9-0.7l-0.2,0.8C201.7,196.6,200.9,196.6,200.4,196.5z"/>
	<path class="st1" d="M196.5,197.6c0.5-0.2,1.4-0.6,1.8-0.7l-0.1,0.9C197.7,197.7,196.9,197.7,196.5,197.6z"/>
	<path class="st1" d="M102.8,204.4l0.9-0.5l0.8,0.4c-0.5,0.2-1.4,0.7-1.8,0.9L102.8,204.4z"/>
</g>
<g id="_x23_019e93ff">
	<path class="st2" d="M1599.5,80c-1.2-2.1,2.1-2.1,0.9,0H1599.5z"/>
	<path class="st2" d="M262.7,111.3c2.6-2,6.3-3.1,9.5-1.9c4.5,2.4,5.9,7.8,6.9,12.4c1.3,9.3,1,19.2-2.1,28.1
		c-0.2,0.5-0.6,1.4-0.8,1.9c0.4,1.4-0.5,2.6-0.9,3.9c-1.7,3.8-3.5,7.6-6.4,10.8c-11.1,11.8-26.7,17.5-41.7,22.4l-0.9-0.1
		c-0.5,0.2-1.4,0.6-1.9,0.8c-1.2,0.8-2.7,1.6-4.1,1.2c-0.5,0.2-1.4,0.6-1.9,0.8c-1.6,0.8-3.4,1.7-5.1,1.3c-0.5,0.2-1.4,0.6-1.8,0.8
		c-1.6,0.7-3.4,1.7-5.2,1.2c-0.5,0.2-1.4,0.6-1.9,0.7l-0.9,0.7l-1.1-0.4c-0.5,0.2-1.4,0.5-1.9,0.7l-1,0.7l-1.1-0.3
		c-0.4,0.2-1.4,0.6-1.8,0.7c-1.9,0.7-3.8,1.1-5.7,1.6c-30.6,7.1-61.8,11.3-93.2,13.4c-3.7,0.2-7.3,0.5-11,0.1c0-0.6,0-1.7,0-2.3
		c5.4-1.5,10.6-4.3,16.1-5.1c0.5-0.2,1.4-0.7,1.8-0.9c2.2-1.4,4.8-2,7.2-3c21.4-8.5,42.4-18.3,62.5-29.5c21.7-12,41.5-27,61.7-41.3
		c0.1,0,0.1-0.1,0.2-0.1C244.9,124,253.8,117.6,262.7,111.3z"/>
</g>
</svg>
