<?xml version="1.0" encoding="utf-8"?>
<!-- Generator: Adobe Illustrator 27.1.1, SVG Export Plug-In . SVG Version: 6.00 Build 0)  -->
<svg version="1.1" id="Layer_1" xmlns="http://www.w3.org/2000/svg" xmlns:xlink="http://www.w3.org/1999/xlink" x="0px" y="0px"
	 viewBox="0 0 41 61.4" style="enable-background:new 0 0 41 61.4;" xml:space="preserve">
<style type="text/css">
	.st0{fill:none;stroke:#6CD1F4;stroke-width:2.4137;stroke-miterlimit:10;}
</style>
<path class="st0" d="M28.2,58.7c-0.2,0.2-0.6,0.2-0.8,0.1c-0.1-0.1-0.2-0.1-0.2-0.2c-0.1-0.1-0.1-0.3-0.1-0.4
	c0.3-2.4,1.4-14.7-4.4-22.5c-0.6-0.7-1.4-1.2-2.3-1.2l0,0c-0.9,0-1.8,0.4-2.3,1.2c-5.8,7.8-4.7,20.2-4.4,22.6c0,0.2,0,0.3-0.1,0.4
	c-0.1,0.1-0.2,0.2-0.3,0.2c-0.2,0.1-0.5,0-0.7-0.1c-3.5-2.8-6-13-6.5-27.4C6,29,5.3,26.6,4,24.5c-1.5-2.5-3-6.9-1.6-14
	c0.9-4.9,3.2-7.6,6.6-8c0.3,0,0.6-0.1,0.9-0.1c1.4,0,2.8,0.4,4.2,1.2c1.2,0.7,2.3,1.2,3.3,1.5c0.9,0.3,2,0.5,3,0.5s2-0.2,3-0.5
	s2.1-0.8,3.2-1.5c1.7-1,3.5-1.3,5.1-1.1c3.4,0.5,5.7,3.2,6.6,8c1.4,7.1-0.1,11.5-1.6,14c-1.3,2.1-2,4.5-2.1,7
	C34.3,45.8,31.8,56,28.2,58.7"/>
</svg>
