<?xml version="1.0" encoding="utf-8"?>
<!-- Generator: Adobe Illustrator 27.1.1, SVG Export Plug-In . SVG Version: 6.00 Build 0)  -->
<svg version="1.1" id="Layer_1" xmlns="http://www.w3.org/2000/svg" xmlns:xlink="http://www.w3.org/1999/xlink" x="0px" y="0px"
	 viewBox="0 0 41 61.4" style="enable-background:new 0 0 41 61.4;" xml:space="preserve">
<style type="text/css">
	.st0{fill:#6CD1F4;}
</style>
<g>
	<path class="st0" d="M7.6,59.2V20.7c2.6-0.6,4.5-2.9,4.5-5.6c0-2.8-2-5.1-4.5-5.6V1.8c0-0.7-0.6-1.2-1.2-1.2
		c-0.7,0-1.2,0.6-1.2,1.2v7.7c-2.6,0.6-4.5,2.9-4.5,5.6c0,2.8,2,5.1,4.5,5.6v38.5c0,0.7,0.6,1.2,1.2,1.2C7.1,60.5,7.6,59.9,7.6,59.2
		 M3.1,15.1c0-1.8,1.5-3.3,3.3-3.3s3.3,1.5,3.3,3.3s-1.5,3.3-3.3,3.3l0,0l0,0C4.5,18.4,3.1,16.9,3.1,15.1"/>
	<path class="st0" d="M19.2,1.8v30.9c-2.6,0.6-4.5,2.9-4.5,5.6c0,2.8,2,5.1,4.5,5.6v15.3c0,0.7,0.6,1.2,1.2,1.2
		c0.7,0,1.2-0.6,1.2-1.2V43.9c2.6-0.6,4.6-2.9,4.6-5.6c0-2.8-2-5.1-4.6-5.6V1.8c0-0.7-0.6-1.2-1.2-1.2C19.7,0.5,19.2,1.1,19.2,1.8
		 M23.7,38.3c0,1.8-1.5,3.3-3.3,3.3s-3.3-1.5-3.3-3.3s1.5-3.3,3.3-3.3S23.7,36.5,23.7,38.3"/>
	<path class="st0" d="M33.3,1.8v15.4c-2.6,0.6-4.6,2.9-4.6,5.6c0,2.8,2,5.1,4.6,5.6v30.8c0,0.7,0.6,1.2,1.2,1.2
		c0.7,0,1.2-0.6,1.2-1.2V28.5c2.6-0.6,4.5-2.9,4.5-5.6c0-2.8-1.9-5.1-4.5-5.6V1.8c0-0.7-0.6-1.2-1.2-1.2C33.8,0.5,33.3,1.1,33.3,1.8
		 M37.8,22.8c0,1.8-1.5,3.3-3.3,3.3s-3.3-1.5-3.3-3.3s1.5-3.3,3.3-3.3S37.8,21,37.8,22.8"/>
</g>
</svg>
