<?xml version="1.0" encoding="utf-8"?>
<!-- Generator: Adobe Illustrator 27.7.0, SVG Export Plug-In . SVG Version: 6.00 Build 0)  -->
<svg version="1.1" id="Layer_1" xmlns="http://www.w3.org/2000/svg" xmlns:xlink="http://www.w3.org/1999/xlink" x="0px" y="0px"
	 viewBox="0 0 132.4 23.5" style="enable-background:new 0 0 132.4 23.5;" xml:space="preserve">
<style type="text/css">
	.st0{fill:#BC9D46;}
	.st1{fill:#E84435;}
	.st2{fill:#32A651;}
	.st3{fill:#547CBE;}
	.st4{fill:#F7BA16;}
</style>
<g>
	<g>
		<g>
			<polygon class="st0" points="124.6,7.6 131.8,7.8 126.2,12.4 128.2,19.4 122.1,15.4 116.1,19.5 118,12.5 112.2,8.1 119.5,7.6 
				121.9,0.8 			"/>
			<polygon class="st0" points="104.6,7.6 111.8,7.8 106.2,12.4 108.2,19.4 102.1,15.4 96.1,19.5 98,12.5 92.2,8.1 99.5,7.6 
				101.9,0.8 			"/>
			<polygon class="st0" points="84.6,7.6 91.8,7.8 86.2,12.4 88.2,19.4 82.1,15.4 76.1,19.5 78,12.5 72.2,8.1 79.5,7.6 81.9,0.8 			
				"/>
			<polygon class="st0" points="64.6,7.6 71.8,7.8 66.2,12.4 68.2,19.4 62.1,15.4 56.1,19.5 58,12.5 52.2,8.1 59.5,7.6 61.9,0.8 			
				"/>
			<polygon class="st0" points="44.5,7.6 51.8,7.8 46.2,12.4 48.2,19.4 42.1,15.4 36.1,19.5 38,12.5 32.2,8.1 39.5,7.6 41.9,0.8 			
				"/>
		</g>
	</g>
	<g id="nGh9pX_9_">
		<g>
			<path class="st1" d="M13.1,0.4C14,0.6,15,0.7,15.9,1.1c1.2,0.5,2.3,1.2,3.4,2c0.2,0.2,0.2,0.3,0,0.5c-0.9,0.9-1.8,1.8-2.8,2.7
				c-0.2,0.2-0.3,0.2-0.5,0.1C12.8,3.5,7.5,4.7,5.7,9.1C5.6,9.3,5.6,9.4,5.5,9.5C5.1,9.4,4.8,9.1,4.4,8.8C3.6,8.2,2.9,7.6,2.1,7
				C2,6.9,1.8,6.8,1.7,6.6c0-0.4,0.3-0.7,0.5-1c1.6-2.5,3.9-4.2,6.8-5c0.5-0.1,1.1-0.1,1.6-0.2C11.5,0.4,12.3,0.4,13.1,0.4z"/>
			<path class="st2" d="M5.5,13.9c0.6,1.5,1.4,2.8,2.8,3.6c2.5,1.5,4.9,1.4,7.4,0c0.3,0,0.4,0.2,0.6,0.3c0.9,0.7,1.8,1.4,2.7,2.1
				c0.1,0.1,0.3,0.2,0.3,0.4c0,0.2-0.2,0.4-0.4,0.5c-1.7,1.3-3.5,2.1-5.6,2.2c-0.1,0-0.1,0-0.1,0.1c-0.9,0-1.8,0-2.7,0
				c-1.7-0.1-3.3-0.7-4.8-1.7c-1.6-1-2.9-2.4-3.9-4.1c-0.1-0.2-0.2-0.3-0.2-0.5c0.2-0.3,0.5-0.5,0.8-0.7c0.9-0.7,1.7-1.4,2.6-2
				C5.2,14,5.3,13.8,5.5,13.9z"/>
			<path class="st3" d="M19.4,20.3c-1.2-0.9-2.4-1.9-3.6-2.8c1-0.8,1.8-1.7,2.1-3c0.1-0.4,0-0.5-0.4-0.5c-1.7,0-3.5,0-5.2,0
				c-0.4,0-0.5-0.1-0.5-0.5c0-1.1,0-2.3,0-3.4c0-0.4,0.1-0.5,0.5-0.5c3.2,0,6.4,0,9.6,0c0.4,0,0.6,0.1,0.6,0.6
				c0,0.1-0.1,0.3,0.1,0.4c0,1,0,1.9,0,2.9c-0.1,1.5-0.5,2.9-1.3,4.3c-0.5,0.8-1,1.6-1.7,2.3C19.7,20.1,19.6,20.3,19.4,20.3z"/>
			<path class="st4" d="M5.5,13.9c-1.2,1-2.5,1.9-3.7,2.9c-0.3-0.1-0.3-0.4-0.4-0.6c-0.5-1-0.7-2.1-0.8-3.2c0-0.9,0-1.7,0-2.6
				C0.7,9.3,1,8.2,1.4,7.2C1.5,7,1.5,6.7,1.8,6.6c1.3,0.9,2.5,1.9,3.7,2.9C5.1,11,5.1,12.4,5.5,13.9z"/>
		</g>
	</g>
</g>
</svg>
