<?xml version="1.0" encoding="utf-8"?>
<!-- Generator: Adobe Illustrator 25.0.0, SVG Export Plug-In . SVG Version: 6.00 Build 0)  -->
<svg version="1.1" id="Layer_1" xmlns="http://www.w3.org/2000/svg" xmlns:xlink="http://www.w3.org/1999/xlink" x="0px" y="0px"
	 viewBox="0 0 543.7 398.1" style="enable-background:new 0 0 543.7 398.1;" xml:space="preserve">
<style type="text/css">
	.st0{fill-rule:evenodd;clip-rule:evenodd;fill:#016FD0;}
	.st1{fill-rule:evenodd;clip-rule:evenodd;fill:#FFFFFF;}
	.st2{fill:#0066B2;}
	.st3{fill:#F9A533;}
	.st4{fill-rule:evenodd;clip-rule:evenodd;fill:#231F20;}
	.st5{fill-rule:evenodd;clip-rule:evenodd;fill:none;}
	.st6{fill-rule:evenodd;clip-rule:evenodd;fill:url(#SVGID_1_);}
	.st7{clip-path:url(#SVGID_3_);}
	.st8{fill-rule:evenodd;clip-rule:evenodd;fill:url(#SVGID_4_);}
	.st9{filter:url(#Adobe_OpacityMaskFilter);}
	.st10{opacity:0.75;mask:url(#SVGID_5_);}
	.st11{fill-rule:evenodd;clip-rule:evenodd;fill:#8A371E;}
	.st12{fill:#1D1D1B;}
	.st13{fill:#E20D17;}
	.st14{fill:#EA610A;}
	.st15{fill:#F59E00;}
</style>
<g>
	<polygon class="st0" points="341.4,17 506.7,17 506.7,106.3 506.7,130.4 506.7,182.3 341.4,182.3 341.4,98.2 341.4,86.7 341.4,17 	
		"/>
	<path class="st1" d="M373.5,132.2v-26h27.5l2.9,3.8l3-3.8h99.7v24.2c0,0-2.6,1.8-5.6,1.8h-55.2l-3.3-4.1v4.1h-10.9v-7
		c0,0-1.5,1-4.7,1h-3.7v6h-16.5l-2.9-3.9l-3,3.9L373.5,132.2L373.5,132.2z"/>
	<path class="st1" d="M341.4,86.7l6.2-14.4h10.7l3.5,8.1v-8.1h13.3l2.1,5.8l2-5.8h59.8v2.9c0,0,3.1-2.9,8.3-2.9l19.4,0.1l3.5,8v-8.1
		h11.1l3.1,4.6v-4.6h11.3v26h-11.3l-2.9-4.6v4.6h-16.4l-1.6-4.1h-4.4l-1.6,4.1h-11.1c-4.4,0-7.3-2.9-7.3-2.9v2.9h-16.7l-3.3-4.1v4.1
		h-62.3l-1.6-4.1h-4.4l-1.6,4.1h-7.7V86.7L341.4,86.7z"/>
	<path class="st0" d="M349.8,75.5l-8.4,19.4h5.4l1.5-3.9h9l1.5,3.9h5.6l-8.4-19.4H349.8L349.8,75.5z M352.9,80l2.7,6.8h-5.5
		L352.9,80L352.9,80z"/>
	<polygon class="st0" points="365,94.9 365,75.5 372.8,75.5 377.3,88 381.6,75.5 389.3,75.5 389.3,94.9 384.5,94.9 384.5,80.6 
		379.3,94.9 375,94.9 369.9,80.6 369.9,94.9 365,94.9 	"/>
	<polygon class="st0" points="392.6,94.9 392.6,75.5 408.5,75.5 408.5,79.8 397.6,79.8 397.6,83.1 408.2,83.1 408.2,87.2 
		397.6,87.2 397.6,90.7 408.5,90.7 408.5,94.9 392.6,94.9 	"/>
	<path class="st0" d="M411.3,75.5v19.4h4.9V88h2l5.8,6.9h5.9l-6.4-7.2c2.6-0.2,5.3-2.5,5.3-6c0-4.1-3.2-6.3-6.8-6.3H411.3
		L411.3,75.5z M416.2,79.8h5.6c1.3,0,2.3,1,2.3,2c0,1.3-1.3,2-2.2,2h-5.6L416.2,79.8L416.2,79.8L416.2,79.8z"/>
	<polygon class="st0" points="435.9,94.9 430.9,94.9 430.9,75.5 435.9,75.5 435.9,94.9 	"/>
	<path class="st0" d="M447.6,94.9h-1.1c-5.2,0-8.3-4.1-8.3-9.6c0-5.7,3.1-9.8,9.7-9.8h5.4v4.6h-5.6c-2.7,0-4.5,2.1-4.5,5.2
		c0,3.8,2.1,5.3,5.2,5.3h1.3L447.6,94.9L447.6,94.9z"/>
	<path class="st0" d="M458.2,75.5l-8.4,19.4h5.4l1.5-3.9h9l1.5,3.9h5.6l-8.4-19.4H458.2L458.2,75.5z M461.3,80l2.7,6.8h-5.5
		L461.3,80L461.3,80z"/>
	<polygon class="st0" points="473.4,94.9 473.4,75.5 479.6,75.5 487.5,87.7 487.5,75.5 492.4,75.5 492.4,94.9 486.4,94.9 
		478.3,82.4 478.3,94.9 473.4,94.9 	"/>
	<polygon class="st0" points="376.8,128.9 376.8,109.5 392.6,109.5 392.6,113.8 381.7,113.8 381.7,117.1 392.4,117.1 392.4,121.2 
		381.7,121.2 381.7,124.7 392.6,124.7 392.6,128.9 376.8,128.9 	"/>
	<polygon class="st0" points="454.5,128.9 454.5,109.5 470.3,109.5 470.3,113.8 459.4,113.8 459.4,117.1 470,117.1 470,121.2 
		459.4,121.2 459.4,124.7 470.3,124.7 470.3,128.9 454.5,128.9 	"/>
	<polygon class="st0" points="393.3,128.9 401,119.3 393.1,109.5 399.2,109.5 403.9,115.5 408.6,109.5 414.5,109.5 406.7,119.2 
		414.4,128.9 408.3,128.9 403.7,122.9 399.3,128.9 393.3,128.9 	"/>
	<path class="st0" d="M415,109.5v19.4h5v-6.1h5.1c4.3,0,7.6-2.3,7.6-6.8c0-3.7-2.6-6.5-7-6.5H415L415,109.5z M420,113.9h5.4
		c1.4,0,2.4,0.9,2.4,2.2c0,1.3-1,2.2-2.4,2.2H420V113.9L420,113.9L420,113.9z"/>
	<path class="st0" d="M434.8,109.5v19.4h4.9V122h2l5.8,6.9h5.9l-6.4-7.2c2.6-0.2,5.3-2.5,5.3-6c0-4.1-3.2-6.3-6.8-6.3L434.8,109.5
		L434.8,109.5L434.8,109.5z M439.7,113.8h5.6c1.3,0,2.3,1,2.3,2c0,1.3-1.3,2-2.2,2h-5.6V113.8L439.7,113.8z"/>
	<path class="st0" d="M472.6,128.9v-4.2h9.7c1.4,0,2.1-0.8,2.1-1.6c0-0.8-0.6-1.6-2.1-1.6h-4.4c-3.8,0-5.9-2.3-5.9-5.8
		c0-3.1,1.9-6.1,7.6-6.1h9.5l-2,4.4h-8.2c-1.6,0-2,0.8-2,1.6c0,0.8,0.6,1.7,1.8,1.7h4.6c4.3,0,6.1,2.4,6.1,5.6
		c0,3.4-2.1,6.2-6.3,6.2L472.6,128.9L472.6,128.9z"/>
	<path class="st0" d="M490.4,128.9v-4.2h9.3c1.4,0,2.1-0.8,2.1-1.6c0-0.8-0.6-1.6-2.1-1.6h-4c-3.8,0-5.9-2.3-5.9-5.8
		c0-3.1,1.9-6.1,7.6-6.1h9.3l-2,4.4h-8c-1.6,0-2,0.8-2,1.6c0,0.8,0.6,1.7,1.8,1.7h4.2c4.3,0,6.1,2.4,6.1,5.6c0,3.4-2.1,6.2-6.3,6.2
		L490.4,128.9L490.4,128.9z"/>
</g>
<g>
	<g>
		<polygon class="st2" points="132.8,139.4 113.5,139.4 125.6,65.3 144.9,65.3 		"/>
		<path class="st2" d="M97.3,65.3l-18.4,51l-2.2-11l0,0L70.2,72c0,0-0.8-6.7-9.2-6.7H30.7l-0.4,1.3c0,0,9.3,1.9,20.2,8.5l16.8,64.4
			h20.1l30.7-74.1H97.3z"/>
		<path class="st2" d="M249.1,139.4h17.7l-15.4-74.1h-15.5c-7.2,0-8.9,5.5-8.9,5.5l-28.8,68.6h20.1l4-11h24.5L249.1,139.4z
			 M227.8,113.2L238,85.5l5.7,27.7H227.8z"/>
		<path class="st2" d="M199.6,83.2l2.8-15.9c0,0-8.5-3.2-17.4-3.2c-9.6,0-32.3,4.2-32.3,24.5c0,19.1,26.7,19.4,26.7,29.4
			s-23.9,8.3-31.8,1.9l-2.9,16.6c0,0,8.6,4.2,21.8,4.2c13.2,0,33-6.8,33-25.4c0-19.3-26.9-21.1-26.9-29.4
			C172.6,77.5,191.4,78.6,199.6,83.2z"/>
	</g>
	<path class="st3" d="M76.7,105.3L70.2,72c0,0-0.8-6.7-9.2-6.7H30.7l-0.4,1.3c0,0,14.6,3,28.6,14.4C72.3,91.8,76.7,105.3,76.7,105.3
		z"/>
</g>
<g>
	<path class="st4" d="M24.3,272.7c0-0.7,0.1-1,0.9-0.9c4.1,0.1,8.1-0.1,12.2,0.1c6,0.2,11.4,1.9,15.8,6.1c3,2.9,5,6.4,5.7,10.6
		c1.5,8.2-0.8,15.2-7.1,20.7c-3.4,3-7.5,4.6-12,4.9c-5,0.4-10,0.1-14.9,0.2c-0.6,0-0.5-0.3-0.5-0.7
		C24.3,309.5,24.3,279.5,24.3,272.7z M32.6,306.4c0,0.6,0.1,0.8,0.7,0.8c1.7,0,3.3,0,5-0.2c3-0.3,5.8-1.2,8-3.4
		c3.7-3.7,5.1-8.2,4-13.3c-1-5.1-4-8.8-9.1-10.4c-2.5-0.8-5.1-0.7-7.7-0.8c-0.7,0-1,0.1-1,0.9C32.6,284.4,32.6,302,32.6,306.4z"/>
	<path class="st4" d="M275.9,296.5c4.5,6,8.8,11.8,13.3,17.8c-0.7,0-1.2,0-1.8,0c-2.5,0-5,0-7.5,0c-0.8,0-1.1-0.3-1.5-0.9
		c-3.5-5.2-7-10.4-10.5-15.6c0-0.1-0.1-0.1-0.1-0.2c-0.2-0.5-0.7-0.5-1.1-0.4c-0.4,0.1-0.2,0.5-0.2,0.8c0,5.1,0,10.2,0,15.3
		c0,0.8-0.2,1-1,1c-2.2-0.1-4.4,0-6.6,0c-0.6,0-0.8-0.1-0.8-0.7c0-13.7,0-27.4,0-41.1c0-0.5,0-0.7,0.6-0.7c4.7,0.1,9.5-0.2,14.2,0.2
		c3.3,0.3,6.4,1.1,8.9,3.4c3,2.7,3.9,6.2,3.7,10.1c-0.3,5.7-3.4,9.5-8.9,10.9C276.3,296.4,276.1,296.4,275.9,296.5z M266.4,285
		c0,1.9,0,3.8,0,5.6c0,0.7,0.2,0.8,0.8,0.8c1.2-0.1,2.5,0,3.7-0.2c3.6-0.4,5.7-2.5,5.9-6.1c0.2-2.9-1.3-5.1-4-6
		c-1.8-0.6-3.7-0.5-5.6-0.6c-0.6,0-0.8,0.1-0.8,0.8C266.5,281.2,266.4,283.1,266.4,285z"/>
	<path class="st4" d="M229.1,272.7c0-0.6,0.1-0.8,0.8-0.8c7.3,0,14.6,0,22,0c0.6,0,0.8,0.1,0.8,0.7c0,2,0,3.9,0,5.9
		c0,0.6-0.2,0.7-0.7,0.7c-4.5,0-9.1,0-13.6,0c-0.8,0-0.9,0.2-0.9,0.9c0,2.6,0,5.1,0,7.7c0,0.6,0.2,0.8,0.8,0.8c4.4,0,8.7,0,13.1,0
		c0.7,0,0.8,0.2,0.8,0.8c0,1.9,0,3.8,0,5.7c0,0.6-0.2,0.7-0.7,0.7c-4.3,0-8.7,0-13,0c-0.8,0-1,0.2-0.9,1c0,3.2,0,6.4,0,9.6
		c0,0.6,0.1,0.8,0.8,0.8c4.5,0,9.1,0,13.6,0c0.7,0,0.8,0.2,0.8,0.8c0,1.9,0,3.9,0,5.8c0,0.5-0.1,0.6-0.6,0.6c-7.4,0-14.9,0-22.3,0
		c-0.7,0-0.6-0.3-0.6-0.8C229.1,306.8,229.1,279.4,229.1,272.7z"/>
	<path class="st4" d="M79.8,302.1c1.1,2.1,2.6,3.8,4.8,4.8c2.3,1,4.7,1.4,7.2,0.3c2.2-1,3.4-2.7,3.5-5.1c0.1-2.4-1.2-4-3.2-5
		c-2.4-1.2-4.9-1.9-7.3-2.9c-2.4-1-4.6-2.2-6.2-4.3c-1-1.3-1.5-2.7-1.7-4.3c-0.9-7,3-12,8.8-13.6c6.1-1.7,11.5-0.2,16.4,3.6
		c0.4,0.3,0.5,0.5,0.1,0.9c-1.2,1.6-2.5,3.1-3.6,4.8c-0.4,0.5-0.5,0.4-0.8,0c-1.3-1.4-2.9-2.6-4.8-2.9c-2.5-0.4-4.9,0-6.6,2
		c-1.6,1.9-1.2,4.2,0.8,5.6c1.8,1.2,3.8,1.9,5.8,2.6c1.9,0.7,3.7,1.5,5.4,2.5c3.5,2,5.5,5,5.7,9.1c0.4,7-3.2,12.9-10.1,14.6
		c-7.3,1.9-14.4-0.2-19.1-7.1c-0.2-0.3-0.2-0.5,0.1-0.7C76.4,305.4,78.1,303.7,79.8,302.1z"/>
	<path class="st4" d="M184.5,271.8c2.9,0,5.6,0,8.4,0c0.6,0,0.8,0.2,1,0.7c2.5,6.4,9.9,24.8,11,27.7c0.5-0.6,7.8-19.1,11.3-27.7
		c0.1-0.3,0.2-0.6,0.7-0.6c2.8,0,5.6,0,8.6,0c-0.7,1.6-12.7,30.2-18.1,43c-0.2,0.5-0.4,0.7-1,0.7c-1.1,0-2.1,0-3.2,0
		c-0.5,0-0.7-0.2-0.9-0.6c-3.3-8-14.9-36-17.4-42C184.8,272.5,184.7,272.2,184.5,271.8z"/>
	<path class="st4" d="M139.3,283.3c-1.6-1.5-3.1-2.8-4.9-3.6c-7.1-3.3-15.6,0.2-18.3,7.7c-2.1,5.8-1.4,11.3,2.8,16
		c2.8,3.1,6.5,4.3,10.7,4.2c3.3,0,6-1.4,8.4-3.5c0.4-0.3,0.7-0.6,1-1c0.3,0.2,0.2,0.4,0.2,0.6c0,2.8,0,5.6,0,8.4
		c0,0.4-0.1,0.7-0.5,0.9c-8.5,4.1-19.3,2.5-26-4.4c-4.1-4.2-6.2-9.3-6.3-15.3c-0.2-10,6.4-18.7,15.7-21.5c5.7-1.7,11.2-1.4,16.6,1.3
		c0.3,0.1,0.5,0.3,0.5,0.7C139.3,277,139.3,280.1,139.3,283.3z"/>
	<path class="st4" d="M71.4,313.5c0,0.7-0.1,1-0.9,1c-2.3-0.1-4.5,0-6.8,0c-0.5,0-0.7-0.1-0.7-0.7c0-13.7,0-27.4,0-41.1
		c0-0.6,0.2-0.7,0.8-0.7c2.2,0,4.5,0,6.7,0c0.7,0,0.9,0.2,0.9,0.9C71.4,279.5,71.4,306.7,71.4,313.5z"/>
	<path class="st5" d="M289.3,272.8c0,0.1,0,0.2,0.1,0.3c0,1.1,0,2.3,0,3.4c0,0.1,0,0.3,0,0.4C287.8,275.7,287.8,273.9,289.3,272.8z"
		/>
	<path class="st5" d="M32.6,280c0-0.8,0.2-1,1-0.9c2.6,0,5.2,0,7.7,0.8c5.1,1.6,8.1,5.2,9.1,10.4c1,5.1-0.3,9.6-4,13.3
		c-2.2,2.2-5,3.1-8,3.4c-1.7,0.2-3.3,0.2-5,0.2c-0.6,0-0.7-0.2-0.7-0.8C32.6,302,32.6,284.4,32.6,280z"/>
	<path class="st5" d="M266.4,285c0-1.9,0-3.8,0-5.7c0-0.7,0.2-0.8,0.8-0.8c1.9,0,3.8,0,5.6,0.6c2.8,0.9,4.3,3.1,4,6
		c-0.3,3.6-2.3,5.7-5.9,6.1c-1.2,0.1-2.5,0.1-3.7,0.2c-0.6,0-0.8-0.1-0.8-0.8C266.5,288.8,266.4,286.9,266.4,285z"/>
	<g>
		<linearGradient id="SVGID_1_" gradientUnits="userSpaceOnUse" x1="154.8667" y1="272.6687" x2="173.9366" y2="313.5641">
			<stop  offset="0.3831" style="stop-color:#E45E26"/>
			<stop  offset="1" style="stop-color:#F8A020"/>
		</linearGradient>
		<ellipse class="st6" cx="164.4" cy="293.1" rx="22.5" ry="22.6"/>
		<g>
			<defs>
				<ellipse id="SVGID_2_" cx="164.4" cy="293.1" rx="22.5" ry="22.6"/>
			</defs>
			<clipPath id="SVGID_3_">
				<use xlink:href="#SVGID_2_"  style="overflow:visible;"/>
			</clipPath>
			<g class="st7">
				<g>
					
						<linearGradient id="SVGID_4_" gradientUnits="userSpaceOnUse" x1="742.9606" y1="614.3664" x2="768.5826" y2="669.3129" gradientTransform="matrix(0.7134 -0.6305 0.6622 0.7493 -794.7441 294.1068)">
						<stop  offset="0.3234" style="stop-color:#E45E26;stop-opacity:0"/>
						<stop  offset="1" style="stop-color:#F8A020;stop-opacity:0"/>
					</linearGradient>
					<path class="st8" d="M189.4,280.9c11.3,12.7,11.4,31,0.4,40.7c-11,9.8-29.1,7.3-40.4-5.4c-11.3-12.7-11.4-31-0.4-40.7
						C160.1,265.7,178.2,268.1,189.4,280.9z"/>
				</g>
				<defs>
					<filter id="Adobe_OpacityMaskFilter" filterUnits="userSpaceOnUse" x="140.9" y="269.5" width="57.1" height="58.1">
						
							<feColorMatrix  type="matrix" values="-1 0 0 0 1  0 -1 0 0 1  0 0 -1 0 1  0 0 0 1 0" color-interpolation-filters="sRGB" result="source"/>
					</filter>
				</defs>
				<mask maskUnits="userSpaceOnUse" x="140.9" y="269.5" width="57.1" height="58.1" id="SVGID_5_">
					<g class="st9">
						
							<image style="overflow:visible;" width="62" height="63" xlink:href="A555AEABCAAC5717.jpg"  transform="matrix(1 0 0 1 138.8369 266.6681)">
						</image>
					</g>
				</mask>
				<g class="st10">
					<path class="st11" d="M189.4,280.9c11.3,12.7,11.4,31,0.4,40.7c-11,9.8-29.1,7.3-40.4-5.4c-11.3-12.7-11.4-31-0.4-40.7
						C160.1,265.7,178.2,268.1,189.4,280.9z"/>
				</g>
			</g>
		</g>
	</g>
</g>
<g>
	<g>
		<path class="st12" d="M365.2,351.1c-0.5-0.5-1.2-1-1.9-1.3c-0.7-0.3-1.5-0.4-2.4-0.4c-0.5,0-0.9,0-1.4,0.1c-0.5,0.1-1,0.2-1.5,0.4
			c-0.5,0.2-0.9,0.5-1.4,0.8c-0.4,0.4-0.8,0.8-1.1,1.3c-0.5-0.9-1.2-1.5-2.1-2c-0.9-0.5-1.9-0.7-3-0.7c-0.4,0-0.8,0-1.2,0.1
			c-0.4,0.1-0.8,0.2-1.2,0.4c-0.4,0.2-0.8,0.4-1.2,0.7c-0.4,0.3-0.7,0.7-1,1.1v-1.9h-3.2v15.3h3.2v-8.5c0-0.6,0.1-1.2,0.3-1.7
			c0.2-0.5,0.5-0.9,0.8-1.3c0.3-0.3,0.7-0.6,1.2-0.8c0.5-0.2,1-0.3,1.5-0.3c1.1,0,1.9,0.3,2.5,1c0.6,0.7,0.9,1.7,0.9,3v8.5h3.2v-8.5
			c0-0.6,0.1-1.2,0.3-1.7c0.2-0.5,0.5-0.9,0.8-1.3c0.3-0.3,0.7-0.6,1.2-0.8c0.5-0.2,1-0.3,1.5-0.3c1.1,0,1.9,0.3,2.5,1
			c0.6,0.7,0.9,1.7,0.9,3v8.5h3.2v-9.6c0-0.9-0.1-1.7-0.4-2.5C366.1,352.3,365.7,351.6,365.2,351.1z"/>
		<path class="st12" d="M382.3,351.6c-0.5-0.7-1.2-1.2-2-1.6c-0.8-0.4-1.7-0.6-2.8-0.6c-1.1,0-2.1,0.2-3,0.6c-0.9,0.4-1.7,1-2.4,1.7
			c-0.7,0.7-1.2,1.6-1.6,2.5c-0.4,1-0.6,2.1-0.6,3.2c0,1.2,0.2,2.2,0.6,3.2c0.4,1,0.9,1.8,1.6,2.5c0.7,0.7,1.5,1.3,2.4,1.7
			c0.9,0.4,1.9,0.6,3,0.6c1.1,0,2-0.2,2.8-0.6c0.8-0.4,1.4-0.9,2-1.6v1.8h3.3v-15.3h-3.3V351.6z M382.2,359.4
			c-0.2,0.6-0.5,1.1-0.9,1.5c-0.4,0.4-0.9,0.8-1.5,1c-0.6,0.2-1.2,0.4-1.9,0.4c-0.7,0-1.4-0.1-1.9-0.4c-0.6-0.3-1.1-0.6-1.4-1.1
			c-0.4-0.4-0.7-1-0.9-1.6c-0.2-0.6-0.3-1.2-0.3-1.9c0-0.7,0.1-1.3,0.3-1.9c0.2-0.6,0.5-1.1,0.9-1.6c0.4-0.4,0.9-0.8,1.4-1.1
			c0.6-0.3,1.2-0.4,1.9-0.4c0.7,0,1.3,0.1,1.9,0.4c0.6,0.3,1,0.6,1.5,1c0.4,0.4,0.7,1,0.9,1.5c0.2,0.6,0.3,1.2,0.3,1.9
			S382.4,358.8,382.2,359.4z"/>
		<path class="st12" d="M400.9,357.4c-0.9-0.7-2.2-1.2-3.9-1.5l-1.6-0.2c-0.4-0.1-0.7-0.1-1-0.2c-0.3-0.1-0.6-0.2-0.8-0.3
			c-0.2-0.1-0.4-0.3-0.5-0.4c-0.1-0.2-0.2-0.4-0.2-0.7c0-0.5,0.3-1,0.8-1.3c0.5-0.3,1.2-0.5,2.1-0.5c0.5,0,0.9,0,1.4,0.1
			c0.5,0.1,0.9,0.2,1.3,0.3c0.4,0.1,0.8,0.3,1.1,0.4c0.3,0.2,0.6,0.3,0.9,0.4l1.4-2.6c-0.8-0.5-1.7-0.9-2.8-1.2
			c-1.1-0.3-2.2-0.4-3.4-0.4c-1,0-1.9,0.1-2.6,0.3c-0.8,0.2-1.4,0.6-2,1c-0.5,0.4-1,0.9-1.3,1.5c-0.3,0.6-0.4,1.3-0.4,2
			c0,1.2,0.4,2.2,1.3,3c0.9,0.8,2.2,1.3,3.9,1.5l1.6,0.2c0.9,0.1,1.6,0.3,2,0.6c0.4,0.3,0.6,0.6,0.6,1.1c0,0.6-0.3,1-0.9,1.4
			c-0.6,0.3-1.5,0.5-2.6,0.5c-0.6,0-1.2,0-1.7-0.1c-0.5-0.1-0.9-0.2-1.4-0.3c-0.4-0.1-0.8-0.3-1.1-0.5c-0.3-0.2-0.6-0.4-0.9-0.6
			l-1.5,2.5c0.6,0.4,1.1,0.7,1.7,1c0.6,0.3,1.2,0.5,1.8,0.6c0.6,0.1,1.1,0.2,1.7,0.3c0.5,0,1,0.1,1.4,0.1c1.1,0,2.1-0.1,2.9-0.4
			c0.9-0.2,1.6-0.6,2.2-1c0.6-0.4,1-1,1.4-1.6s0.5-1.3,0.5-2C402.3,359.1,401.9,358.1,400.9,357.4z"/>
		<path class="st12" d="M432.1,351.6c-0.6-0.7-1.4-1.3-2.3-1.6c-0.9-0.4-1.9-0.6-2.9-0.6c-1.1,0-2.2,0.2-3.1,0.6
			c-0.9,0.4-1.7,0.9-2.4,1.6c-0.7,0.7-1.2,1.6-1.6,2.5c-0.4,1-0.6,2.1-0.6,3.3c0,1.2,0.2,2.3,0.6,3.3c0.4,1,0.9,1.8,1.6,2.5
			c0.7,0.7,1.5,1.2,2.5,1.6c1,0.4,2,0.6,3.2,0.6c1.2,0,2.3-0.2,3.3-0.5c1-0.3,2-0.9,3-1.7l-1.7-2.4c-0.6,0.5-1.3,0.9-2.1,1.2
			c-0.8,0.3-1.5,0.4-2.3,0.4c-0.5,0-1.1-0.1-1.6-0.2c-0.5-0.1-1-0.4-1.4-0.7c-0.4-0.3-0.7-0.7-1-1.2c-0.3-0.5-0.5-1.1-0.6-1.8h11.3
			c0-0.2,0-0.4,0-0.6c0-0.2,0-0.4,0-0.6c0-1.2-0.2-2.3-0.5-3.3C433.3,353.2,432.8,352.3,432.1,351.6z M422.8,356.1
			c0.1-0.6,0.2-1.1,0.4-1.5c0.2-0.5,0.5-0.9,0.8-1.2c0.3-0.3,0.7-0.6,1.2-0.8c0.5-0.2,1-0.3,1.6-0.3c1.1,0,1.9,0.3,2.6,1
			c0.7,0.7,1.1,1.6,1.3,2.8H422.8z"/>
		<path class="st12" d="M476.4,351.6c-0.5-0.7-1.2-1.2-2-1.6c-0.8-0.4-1.7-0.6-2.8-0.6c-1.1,0-2.1,0.2-3,0.6c-0.9,0.4-1.7,1-2.4,1.7
			c-0.7,0.7-1.2,1.6-1.6,2.5c-0.4,1-0.6,2.1-0.6,3.2c0,1.2,0.2,2.2,0.6,3.2c0.4,1,0.9,1.8,1.6,2.5c0.7,0.7,1.5,1.3,2.4,1.7
			c0.9,0.4,1.9,0.6,3,0.6c1.1,0,2-0.2,2.8-0.6c0.8-0.4,1.4-0.9,2-1.6v1.8h3.3v-15.3h-3.3V351.6z M476.3,359.4
			c-0.2,0.6-0.5,1.1-0.9,1.5c-0.4,0.4-0.9,0.8-1.5,1c-0.6,0.2-1.2,0.4-1.9,0.4c-0.7,0-1.4-0.1-1.9-0.4c-0.6-0.3-1.1-0.6-1.4-1.1
			c-0.4-0.4-0.7-1-0.9-1.6c-0.2-0.6-0.3-1.2-0.3-1.9c0-0.7,0.1-1.3,0.3-1.9c0.2-0.6,0.5-1.1,0.9-1.6c0.4-0.4,0.9-0.8,1.4-1.1
			c0.6-0.3,1.2-0.4,1.9-0.4c0.7,0,1.3,0.1,1.9,0.4c0.6,0.3,1,0.6,1.5,1c0.4,0.4,0.7,1,0.9,1.5c0.2,0.6,0.3,1.2,0.3,1.9
			S476.5,358.8,476.3,359.4z"/>
		<path class="st12" d="M415.2,362c-0.5,0.2-1.1,0.3-1.6,0.3c-0.3,0-0.7-0.1-0.9-0.2c-0.3-0.1-0.5-0.3-0.8-0.5
			c-0.2-0.2-0.4-0.5-0.5-0.9c-0.1-0.4-0.2-0.8-0.2-1.3v-6.7h5.4v-3h-5.4v-4.6h-3.3v4.6h-3v3h3v6.7c0,2,0.5,3.5,1.4,4.5
			c1,1,2.3,1.4,4,1.4c1,0,1.8-0.1,2.6-0.4c0.5-0.2,1-0.4,1.4-0.7l-1.1-2.8C415.9,361.7,415.6,361.9,415.2,362z"/>
		<path class="st12" d="M445.3,349.4c-0.9,0-1.8,0.2-2.5,0.5c-0.8,0.3-1.4,1.2-1.9,1.9v-2h-3v15.3h3.1v-8.4c0-0.6,0.1-1.2,0.3-1.7
			c0.2-0.5,0.4-0.9,0.7-1.3c0.3-0.4,0.7-0.6,1.1-0.8c0.4-0.2,0.9-0.3,1.5-0.3c0.4,0,0.8,0,1.3,0.1c0.2,0,0.5,0.1,0.7,0.2l1-3.2
			c-0.3-0.1-0.5-0.2-0.8-0.2C446.3,349.4,445.8,349.4,445.3,349.4z"/>
		<path class="st12" d="M491.7,349.4c-0.9,0-1.8,0.2-2.5,0.5c-0.8,0.3-1.4,1.2-1.9,1.9v-2h-3v15.3h3.1v-8.4c0-0.6,0.1-1.2,0.3-1.7
			c0.2-0.5,0.4-0.9,0.7-1.3c0.3-0.4,0.7-0.6,1.1-0.8c0.4-0.2,0.9-0.3,1.5-0.3c0.4,0,0.8,0,1.3,0.1c0.2,0,0.5,0.1,0.7,0.2l1-3.2
			c-0.3-0.1-0.5-0.2-0.8-0.2C492.6,349.4,492.2,349.4,491.7,349.4z"/>
		<path class="st12" d="M507.2,343.6v8.1c-0.5-0.7-1.2-1.2-2-1.6c-0.8-0.4-1.7-0.6-2.8-0.6c-1.1,0-2.1,0.2-3,0.6
			c-0.9,0.4-1.7,1-2.4,1.7c-0.7,0.7-1.2,1.6-1.6,2.5c-0.4,1-0.6,2.1-0.6,3.2c0,1.2,0.2,2.2,0.6,3.2c0.4,1,0.9,1.8,1.6,2.5
			c0.7,0.7,1.5,1.3,2.4,1.7c0.9,0.4,1.9,0.6,3,0.6c1.1,0,2-0.2,2.8-0.6c0.8-0.4,1.4-0.9,2-1.6v1.8h3.3v-21.5H507.2z M507.1,359.4
			c-0.2,0.6-0.5,1.1-0.9,1.5c-0.4,0.4-0.9,0.8-1.5,1c-0.6,0.2-1.2,0.4-1.9,0.4c-0.7,0-1.4-0.1-1.9-0.4c-0.6-0.3-1.1-0.6-1.4-1.1
			c-0.4-0.4-0.7-1-0.9-1.6c-0.2-0.6-0.3-1.2-0.3-1.9c0-0.7,0.1-1.3,0.3-1.9c0.2-0.6,0.5-1.1,0.9-1.6c0.4-0.4,0.9-0.8,1.4-1.1
			c0.6-0.3,1.2-0.4,1.9-0.4c0.7,0,1.3,0.1,1.9,0.4c0.6,0.3,1,0.6,1.5,1c0.4,0.4,0.7,1,0.9,1.5c0.2,0.6,0.3,1.2,0.3,1.9
			S507.3,358.8,507.1,359.4z"/>
		<path class="st12" d="M453.3,353.9c0.4-0.4,0.9-0.8,1.5-1c0.6-0.2,1.2-0.4,1.9-0.4l0,0c0.7,0,1.4,0.1,2.1,0.4
			c0.6,0.2,1.2,0.6,1.6,1l1.6-2.7c-0.6-0.5-1.3-0.9-2-1.2c-1-0.4-2.1-0.6-3.3-0.6c-1.2,0-2.3,0.2-3.3,0.6c-1,0.4-1.9,1-2.6,1.7
			c-0.7,0.7-1.3,1.6-1.7,2.5c-0.4,1-0.6,2-0.6,3.2c0,1.1,0.2,2.2,0.6,3.2c0.4,1,1,1.8,1.7,2.5c0.7,0.7,1.6,1.3,2.6,1.7
			c1,0.4,2.1,0.6,3.3,0.6c1.2,0,2.3-0.2,3.3-0.6c0.8-0.3,1.4-0.7,2-1.2l-1.6-2.7c-0.5,0.4-1,0.7-1.6,1c-0.6,0.2-1.3,0.4-2.1,0.4l0,0
			c-0.7,0-1.3-0.1-1.9-0.4c-0.6-0.2-1.1-0.6-1.5-1c-0.4-0.4-0.8-0.9-1-1.5c-0.2-0.6-0.4-1.3-0.4-2c0-0.7,0.1-1.4,0.4-2
			C452.5,354.8,452.9,354.3,453.3,353.9z"/>
	</g>
	<g>
		<path class="st13" d="M404.6,278.4c0-18.3,8.6-34.6,21.9-45.2c-9.8-7.8-22.2-12.4-35.7-12.4c-31.8,0-57.6,25.8-57.6,57.6
			s25.8,57.6,57.6,57.6c13.5,0,25.9-4.7,35.7-12.4C413.2,313,404.6,296.7,404.6,278.4z"/>
		<ellipse class="st14" cx="426.5" cy="278.4" rx="21.9" ry="45.2"/>
		<path class="st15" d="M462.2,220.8c-13.5,0-25.9,4.7-35.7,12.4c13.3,10.5,21.9,26.8,21.9,45.2c0,18.3-8.6,34.6-21.9,45.2
			c9.8,7.8,22.2,12.4,35.7,12.4c31.8,0,57.6-25.8,57.6-57.6S494,220.8,462.2,220.8z"/>
	</g>
</g>
</svg>
