<?xml version="1.0" encoding="utf-8"?>
<!-- Generator: Adobe Illustrator 27.7.0, SVG Export Plug-In . SVG Version: 6.00 Build 0)  -->
<svg version="1.1" id="Layer_1" xmlns="http://www.w3.org/2000/svg" xmlns:xlink="http://www.w3.org/1999/xlink" x="0px" y="0px"
	 viewBox="0 0 52.9 39.4" style="enable-background:new 0 0 52.9 39.4;" xml:space="preserve">
<style type="text/css">
	.st0{fill:#759BBF;}
	.st1{fill:#FFFFFF;}
</style>
<g id="Group_4143" transform="translate(-540.821 -1261)">
	<path id="Path_7487" class="st0" d="M541.3,1280.8c0-10.7,8.7-19.4,19.4-19.4s19.4,8.7,19.4,19.4c0,10.7-8.7,19.4-19.4,19.4l0,0
		C549.9,1300.2,541.3,1291.5,541.3,1280.8z"/>
	<rect id="Rectangle_3860" x="560.4" y="1261.3" class="st0" width="33" height="39"/>
	<path id="Icon_ionic-md-arrow-round-down" class="st1" d="M570.8,1292.3l9.7-9.4c0.4-0.4,0.6-1,0.6-1.6l0,0c0-0.6-0.2-1.2-0.6-1.6
		l-9.7-9.4c-0.8-0.8-2.1-0.9-2.9-0.1l-0.1,0.1c-0.8,0.9-0.8,2.3,0,3.2l5.8,5.6h-15c-1.2,0.1-2.2,1.1-2.2,2.3c0,1.2,1,2.1,2.2,2.2h15
		l-5.8,5.6c-0.8,0.9-0.8,2.3,0,3.2C568.6,1293.2,569.9,1293.2,570.8,1292.3C570.8,1292.4,570.8,1292.4,570.8,1292.3z"/>
</g>
</svg>
